<svg xmlns="http://www.w3.org/2000/svg" viewBox="0 0 64 64" width="64" height="64" role="img" aria-label="nuru">
<defs>
    <radialGradient id="halo" cx="50%" cy="8%" r="70%">
      <stop offset="0%" stop-color="#16263a" stop-opacity="0.9"/>
      <stop offset="100%" stop-color="#0a0e14" stop-opacity="0"/>
    </radialGradient>
    <filter id="g" x="-60%" y="-60%" width="220%" height="220%">
      <feGaussianBlur stdDeviation="0.6" result="b"/>
      <feMerge><feMergeNode in="b"/><feMergeNode in="SourceGraphic"/></feMerge>
    </filter>
  </defs>
<rect width="64" height="64" rx="14" fill="#0a0e14"/>
       <rect width="64" height="64" rx="14" fill="url(#halo)"/>
<rect x="7.0" y="7.0" width="8.4" height="8.4" rx="1.8" fill="#6fe3c4" filter="url(#g)"/>
<rect x="48.6" y="7.0" width="8.4" height="8.4" rx="1.8" fill="#6fe3c4" filter="url(#g)"/>
<rect x="7.0" y="17.4" width="8.4" height="8.4" rx="1.8" fill="#6fe3c4" filter="url(#g)"/>
<rect x="17.4" y="17.4" width="8.4" height="8.4" rx="1.8" fill="#6fe3c4" filter="url(#g)"/>
<rect x="48.6" y="17.4" width="8.4" height="8.4" rx="1.8" fill="#6fe3c4" filter="url(#g)"/>
<rect x="7.0" y="27.8" width="8.4" height="8.4" rx="1.8" fill="#6fe3c4" filter="url(#g)"/>
<rect x="27.8" y="27.8" width="8.4" height="8.4" rx="1.8" fill="#6fe3c4" filter="url(#g)"/>
<rect x="48.6" y="27.8" width="8.4" height="8.4" rx="1.8" fill="#6fe3c4" filter="url(#g)"/>
<rect x="7.0" y="38.2" width="8.4" height="8.4" rx="1.8" fill="#6fe3c4" filter="url(#g)"/>
<rect x="38.2" y="38.2" width="8.4" height="8.4" rx="1.8" fill="#6fe3c4" filter="url(#g)"/>
<rect x="48.6" y="38.2" width="8.4" height="8.4" rx="1.8" fill="#6fe3c4" filter="url(#g)"/>
<rect x="7.0" y="48.6" width="8.4" height="8.4" rx="1.8" fill="#6fe3c4" filter="url(#g)"/>
<rect x="48.6" y="48.6" width="8.4" height="8.4" rx="1.8" fill="#6fe3c4" filter="url(#g)"/>
</svg>