<svg xmlns="http://www.w3.org/2000/svg" viewBox="0 0 120 120" width="120" height="120" role="img" aria-label="nuru">
<defs>
    <radialGradient id="halo" cx="50%" cy="8%" r="70%">
      <stop offset="0%" stop-color="#16263a" stop-opacity="0.9"/>
      <stop offset="100%" stop-color="#0a0e14" stop-opacity="0"/>
    </radialGradient>
    <filter id="g" x="-60%" y="-60%" width="220%" height="220%">
      <feGaussianBlur stdDeviation="2.2" result="b"/>
      <feMerge><feMergeNode in="b"/><feMergeNode in="SourceGraphic"/></feMerge>
    </filter>
  </defs>

<rect x="7.0" y="7.0" width="17.2" height="17.2" rx="3.8" fill="#6fe3c4" filter="url(#g)"/>
<rect x="95.8" y="7.0" width="17.2" height="17.2" rx="3.8" fill="#6fe3c4" filter="url(#g)"/>
<rect x="7.0" y="29.2" width="17.2" height="17.2" rx="3.8" fill="#6fe3c4" filter="url(#g)"/>
<rect x="29.2" y="29.2" width="17.2" height="17.2" rx="3.8" fill="#6fe3c4" filter="url(#g)"/>
<rect x="95.8" y="29.2" width="17.2" height="17.2" rx="3.8" fill="#6fe3c4" filter="url(#g)"/>
<rect x="7.0" y="51.4" width="17.2" height="17.2" rx="3.8" fill="#6fe3c4" filter="url(#g)"/>
<rect x="51.4" y="51.4" width="17.2" height="17.2" rx="3.8" fill="#6fe3c4" filter="url(#g)"/>
<rect x="95.8" y="51.4" width="17.2" height="17.2" rx="3.8" fill="#6fe3c4" filter="url(#g)"/>
<rect x="7.0" y="73.6" width="17.2" height="17.2" rx="3.8" fill="#6fe3c4" filter="url(#g)"/>
<rect x="73.6" y="73.6" width="17.2" height="17.2" rx="3.8" fill="#6fe3c4" filter="url(#g)"/>
<rect x="95.8" y="73.6" width="17.2" height="17.2" rx="3.8" fill="#6fe3c4" filter="url(#g)"/>
<rect x="7.0" y="95.8" width="17.2" height="17.2" rx="3.8" fill="#6fe3c4" filter="url(#g)"/>
<rect x="95.8" y="95.8" width="17.2" height="17.2" rx="3.8" fill="#6fe3c4" filter="url(#g)"/>
</svg>