<svg xmlns="http://www.w3.org/2000/svg" viewBox="0 0 512 512" width="512" height="512" role="img" aria-label="nuru">
<defs>
    <radialGradient id="halo" cx="50%" cy="8%" r="70%">
      <stop offset="0%" stop-color="#16263a" stop-opacity="0.9"/>
      <stop offset="100%" stop-color="#0a0e14" stop-opacity="0"/>
    </radialGradient>
    <filter id="g" x="-60%" y="-60%" width="220%" height="220%">
      <feGaussianBlur stdDeviation="9.2" result="b"/>
      <feMerge><feMergeNode in="b"/><feMergeNode in="SourceGraphic"/></feMerge>
    </filter>
  </defs>
<rect width="512" height="512" rx="113" fill="#0a0e14"/>
       <rect width="512" height="512" rx="113" fill="url(#halo)"/>
<rect x="82.0" y="82.0" width="56.8" height="56.8" rx="12.5" fill="#6fe3c4" filter="url(#g)"/>
<rect x="154.8" y="82.0" width="56.8" height="56.8" rx="12.5" fill="#141c26" stroke="#1e2733" stroke-width="1"/>
<rect x="227.6" y="82.0" width="56.8" height="56.8" rx="12.5" fill="#141c26" stroke="#1e2733" stroke-width="1"/>
<rect x="300.4" y="82.0" width="56.8" height="56.8" rx="12.5" fill="#141c26" stroke="#1e2733" stroke-width="1"/>
<rect x="373.2" y="82.0" width="56.8" height="56.8" rx="12.5" fill="#6fe3c4" filter="url(#g)"/>
<rect x="82.0" y="154.8" width="56.8" height="56.8" rx="12.5" fill="#6fe3c4" filter="url(#g)"/>
<rect x="154.8" y="154.8" width="56.8" height="56.8" rx="12.5" fill="#6fe3c4" filter="url(#g)"/>
<rect x="227.6" y="154.8" width="56.8" height="56.8" rx="12.5" fill="#141c26" stroke="#1e2733" stroke-width="1"/>
<rect x="300.4" y="154.8" width="56.8" height="56.8" rx="12.5" fill="#141c26" stroke="#1e2733" stroke-width="1"/>
<rect x="373.2" y="154.8" width="56.8" height="56.8" rx="12.5" fill="#6fe3c4" filter="url(#g)"/>
<rect x="82.0" y="227.6" width="56.8" height="56.8" rx="12.5" fill="#6fe3c4" filter="url(#g)"/>
<rect x="154.8" y="227.6" width="56.8" height="56.8" rx="12.5" fill="#141c26" stroke="#1e2733" stroke-width="1"/>
<rect x="227.6" y="227.6" width="56.8" height="56.8" rx="12.5" fill="#6fe3c4" filter="url(#g)"/>
<rect x="300.4" y="227.6" width="56.8" height="56.8" rx="12.5" fill="#141c26" stroke="#1e2733" stroke-width="1"/>
<rect x="373.2" y="227.6" width="56.8" height="56.8" rx="12.5" fill="#6fe3c4" filter="url(#g)"/>
<rect x="82.0" y="300.4" width="56.8" height="56.8" rx="12.5" fill="#6fe3c4" filter="url(#g)"/>
<rect x="154.8" y="300.4" width="56.8" height="56.8" rx="12.5" fill="#141c26" stroke="#1e2733" stroke-width="1"/>
<rect x="227.6" y="300.4" width="56.8" height="56.8" rx="12.5" fill="#141c26" stroke="#1e2733" stroke-width="1"/>
<rect x="300.4" y="300.4" width="56.8" height="56.8" rx="12.5" fill="#6fe3c4" filter="url(#g)"/>
<rect x="373.2" y="300.4" width="56.8" height="56.8" rx="12.5" fill="#6fe3c4" filter="url(#g)"/>
<rect x="82.0" y="373.2" width="56.8" height="56.8" rx="12.5" fill="#6fe3c4" filter="url(#g)"/>
<rect x="154.8" y="373.2" width="56.8" height="56.8" rx="12.5" fill="#141c26" stroke="#1e2733" stroke-width="1"/>
<rect x="227.6" y="373.2" width="56.8" height="56.8" rx="12.5" fill="#141c26" stroke="#1e2733" stroke-width="1"/>
<rect x="300.4" y="373.2" width="56.8" height="56.8" rx="12.5" fill="#141c26" stroke="#1e2733" stroke-width="1"/>
<rect x="373.2" y="373.2" width="56.8" height="56.8" rx="12.5" fill="#6fe3c4" filter="url(#g)"/>
</svg>